<svg id="Capa_1" enable-background="new 0 0 512 512" height="512" viewBox="0 0 512 512" width="512" xmlns="http://www.w3.org/2000/svg"><path d="m512 63.786h-241l-25.008 192.214 25.008 192.214h241v-48.785l-10.008-15.596 10.008-14.404v-55.906l-10.008-14.745 10.008-15.255v-55.046l-10.008-14.932 10.008-15.068v-55.906l-10.008-15.551 10.008-14.449z" fill="#dbad5c"/><path d="m0 63.786v48.785l10.008 14.578-10.008 15.422v55.906l10.008 15.469-10.008 14.531v55.046l10.008 15.072-10.008 14.928v55.906l10.008 14.122-10.008 15.878v48.785h241l25.008-192.214-25.008-192.214z" fill="#e7c994"/><path d="m0 112.571v30c41.563 0 77.97 22.475 97.724 55.906h-97.724v30h48.786v55.047h-48.786v30h97.724c-19.754 33.43-56.161 55.905-97.724 55.905v30c79.087 0 143.429-64.342 143.429-143.429s-64.342-143.429-143.429-143.429zm78.786 170.952v-55.047h31.26c2.206 8.816 3.384 18.034 3.384 27.523s-1.178 18.708-3.384 27.523h-31.26z" fill="#fff5f5"/><path d="m512 142.571v-30c-79.087 0-143.429 64.342-143.429 143.429s64.342 143.429 143.429 143.429v-30c-41.563 0-77.97-22.475-97.723-55.906h97.723v-30h-48.785v-55.047h48.785v-30h-97.723c19.753-33.43 56.16-55.905 97.723-55.905zm-78.785 85.906v55.047h-31.26c-2.206-8.816-3.384-18.034-3.384-27.523s1.178-18.708 3.384-27.523h31.26z" fill="#e1ebf0"/><path d="m271 178.664v-114.878h-15l-10.008 192.214 10.008 192.214h15v-114.878c36.291-7.026 63.785-39.023 63.785-77.336s-27.494-70.31-63.785-77.336zm0 123.752v-92.832c19.582 6.344 33.785 24.748 33.785 46.416s-14.203 40.072-33.785 46.416z" fill="#e1ebf0"/><path d="m241 63.786v114.879c-36.291 7.026-63.786 39.023-63.786 77.336s27.495 70.31 63.786 77.336v114.879h15v-384.43zm0 238.63c-19.582-6.344-33.786-24.748-33.786-46.416s14.203-40.072 33.786-46.416z" fill="#fff5f5"/></svg>