<svg id="Capa_1" enable-background="new 0 0 512 512" height="512" viewBox="0 0 512 512" width="512" xmlns="http://www.w3.org/2000/svg"><path d="m97.486 353.486c-53.754 0-97.486-43.732-97.486-97.486s43.732-97.486 97.486-97.486 97.486 43.732 97.486 97.486-43.732 97.486-97.486 97.486z" fill="#00aadf"/><path d="m97.486 353.486v-194.972c53.754 0 97.486 43.732 97.486 97.486s-43.732 97.486-97.486 97.486z" fill="#007fc5"/><path d="m256 194.972c-53.754 0-97.486-43.732-97.486-97.486s43.732-97.486 97.486-97.486 97.486 43.732 97.486 97.486-43.732 97.486-97.486 97.486z" fill="#00aadf"/><path d="m256 512c-53.754 0-97.486-43.732-97.486-97.486s43.732-97.486 97.486-97.486 97.486 43.732 97.486 97.486-43.732 97.486-97.486 97.486z" fill="#00aadf"/><path d="m256 194.972v-194.972c53.754 0 97.486 43.732 97.486 97.486s-43.732 97.486-97.486 97.486z" fill="#007fc5"/><path d="m256 512v-194.972c53.754 0 97.486 43.732 97.486 97.486s-43.732 97.486-97.486 97.486z" fill="#007fc5"/><path d="m414.514 353.486c-53.754 0-97.486-43.732-97.486-97.486s43.732-97.486 97.486-97.486 97.486 43.732 97.486 97.486-43.732 97.486-97.486 97.486z" fill="#00aadf"/><path d="m414.514 353.486v-194.972c53.754 0 97.486 43.732 97.486 97.486s-43.732 97.486-97.486 97.486z" fill="#007fc5"/><path d="m71.114 229.628h52.743v52.743h-52.743z" fill="#e681fa"/><path d="m97.486 229.628h26.372v52.743h-26.372z" fill="#c567ea"/><path d="m288.929 116.489h-65.858l32.929-59.81z" fill="#97de3d"/><path d="m288.929 116.489h-32.929v-59.81z" fill="#59c36a"/><path d="m294.528 397.199-21.213-21.213-17.315 17.315-17.315-17.315-21.213 21.213 17.315 17.315-17.315 17.316 21.213 21.212 17.315-17.315 17.315 17.315 21.213-21.212-17.315-17.316z" fill="#fed330"/><path d="m294.528 397.199-21.213-21.213-17.315 17.315v42.426l17.315 17.315 21.213-21.212-17.315-17.316z" fill="#f8b233"/><path d="m415.514 285.215c-16.033 0-29.078-13.044-29.078-29.078 0-16.033 13.044-29.077 29.078-29.077s29.077 13.044 29.077 29.077c0 16.034-13.044 29.078-29.077 29.078z" fill="#ff0059"/><path d="m415.514 285.215v-58.155c16.033 0 29.077 13.044 29.077 29.077 0 16.034-13.044 29.078-29.077 29.078z" fill="#d20041"/></svg>