<svg id="Capa_1" enable-background="new 0 0 512 512" height="512" viewBox="0 0 512 512" width="512" xmlns="http://www.w3.org/2000/svg"><path d="m395.031 454.021h-278.062v-133.362l67.952-159.706h142.159l67.952 159.706v133.362z" fill="#575f64"/><path d="m327.079 160.953h-142.158l-53.115-52.056v-108.897h62.078v40.569h35.489v-40.569h52.939v40.569h35.545v-40.569h62.339v108.897z" fill="#7c8388"/><path d="m131.806 108.897v-108.897h62.078v40.569h35.489v-40.569h52.939v40.569h35.545v-40.569h62.339v108.897z" fill="#575f64"/><path d="m327.079 160.953h-71.079v293.068h139.031v-133.362z" fill="#32393f"/><path d="m317.856 0v40.569h-35.545v-40.569h-26.311v160.953h71.079l53.115-52.056v-108.897z" fill="#575f64"/><path d="m317.856 0v40.569h-35.545v-40.569h-26.311v108.897h124.194v-108.897z" fill="#32393f"/><path d="m395.031 454.021h-278.062v-133.362h278.063v133.362z" fill="#7c8388"/><path d="m256 320.659h139.031v133.363h-139.031z" fill="#575f64"/><path d="m445.997 512h-379.994v-43.983c0-24.26 19.736-43.996 43.996-43.996h292.002c24.26 0 43.996 19.736 43.996 43.996z" fill="#575f64"/><path d="m402.001 424.021h-146.001v87.979h189.997v-43.983c0-24.26-19.736-43.996-43.996-43.996z" fill="#32393f"/><path d="m41.305 482h429.391v30h-429.391z" fill="#7c8388"/><path d="m256 482h214.695v30h-214.695z" fill="#575f64"/><path d="m84.464 365.003h343.072v30h-343.072z" fill="#575f64"/><path d="m256 365.003h171.536v30h-171.536z" fill="#32393f"/></svg>