<svg xmlns="http://www.w3.org/2000/svg" viewBox="0 0 3840 192.96"><defs><style>.cls-1{fill:#2f7de0;}.cls-2{fill:#de0969;}</style></defs><title>SINTECPLUS</title><g id="Layer_2" data-name="Layer 2"><g id="Sintec"><g id="SINTECPLUS"><g id="SINTEC-2" data-name="SINTEC"><g id="S"><path class="cls-1" d="M1364.33,81.07q-10.89,0-17.23-6t-6.34-16.84q0-10.87,6.21-17t17.62-6.09h135.19V2.33H1364.59a71.45,71.45,0,0,0-24.87,4,52.59,52.59,0,0,0-18.26,11,45,45,0,0,0-11.13,16.71,57.88,57.88,0,0,0-3.76,21.11,56.46,56.46,0,0,0,4,21.49,49,49,0,0,0,11.4,17,51.82,51.82,0,0,0,18.13,11.14,68.16,68.16,0,0,0,24,4h30V81.07Z"/><path class="cls-1" d="M1494.21,94.54q-14.89-13.47-43.64-13.47h-28.74v27.71h28.74q13.22,0,20.34,6.09t7.12,18.26q0,11.13-7.12,17.87t-20.34,6.73H0v32.89H1450.57q14.78,0,25.77-4.14A49.51,49.51,0,0,0,1494.6,175a47.41,47.41,0,0,0,10.88-17.48,64.61,64.61,0,0,0,3.63-22Q1509.11,108,1494.21,94.54Z"/></g><g id="I"><rect class="cls-1" x="1539.15" y="2.33" width="32.89" height="80.74"/><rect class="cls-1" x="1539.15" y="110.78" width="32.89" height="79.84"/></g><g id="N"><path class="cls-1" d="M1636.53,6.73a25.41,25.41,0,0,0-7-5.18,16.62,16.62,0,0,0-7-1.55q-7.77,0-12.31,5.31t-4.53,14.37V190.62h31.34V52.84l48.57,48.85,23.21-23.22Z"/><path class="cls-1" d="M1769.4.78V138.57L1728.51,98l-23.35,23.35L1769.4,186q7,7,15,7a14.94,14.94,0,0,0,11.79-5.19q4.53-5.18,4.53-14.5V.78Z"/></g><g id="T"><rect class="cls-1" x="1892.94" y="62.78" width="32.89" height="127.84"/><rect class="cls-1" x="1821.45" y="2.33" width="175.86" height="32.89"/><line class="cls-1" x1="1861" y1="35.2" x2="1997.17" y2="35.07"/></g><path id="E" class="cls-1" d="M2019.07,190.62V2.33h168.09V35.22H2051.7V157.73h135.72v32.89Zm56.72-81.84V81.07h104.38v27.71Z"/><g id="C"><path class="cls-1" d="M2217.07,132.61a89.68,89.68,0,0,0,48.17,50.63,89.06,89.06,0,0,0,36.39,7.38h102V157.73h-102a58.25,58.25,0,0,1-23.44-4.66,56.1,56.1,0,0,1-18.51-12.82,58.7,58.7,0,0,1-12.18-19.56,64.3,64.3,0,0,1-3.4-12.49H2211A99.75,99.75,0,0,0,2217.07,132.61Z"/><path class="cls-1" d="M2259.68,52.32a55.43,55.43,0,0,1,18.51-12.56,59.77,59.77,0,0,1,23.44-4.54h102V2.33h-102a98,98,0,0,0-36.39,6.61,86.43,86.43,0,0,0-29,18.64,83.87,83.87,0,0,0-19.17,29.14A94.76,94.76,0,0,0,2211,81.2h33.62a61,61,0,0,1,2.89-9.72A57.8,57.8,0,0,1,2259.68,52.32Z"/></g><rect id="Extension" class="cls-1" x="2470" y="2.2" width="1370" height="33"/></g><path id="Plus_sign" data-name="Plus sign" class="cls-2" d="M2424.45,190.79V110.11h-80.34V82h80.34V1.65h28.46V82h80v28.11h-80v80.68Z"/></g></g></g></svg>